<svg width="24" height="18" viewBox="0 0 24 18" fill="none" xmlns="http://www.w3.org/2000/svg">
<g clip-path="url(#clip0_1_5888)">
<path fill-rule="evenodd" clip-rule="evenodd" d="M0 0H34.2V1.38516H0V0ZM0 2.77031H34.2V4.15547H0V2.77031ZM0 5.53711H34.2V6.92578H0V5.53711ZM0 8.30742H34.2V9.69258H0V8.30742ZM0 11.0777H34.2V12.4629H0V11.0777ZM0 13.8445H34.2V15.2297H0V13.8445ZM0 16.6148H34.2V18H0V16.6148Z" fill="#BD3D44"/>
<path fill-rule="evenodd" clip-rule="evenodd" d="M0 1.38525H34.2V2.77041H0V1.38525ZM0 4.15557H34.2V5.53721H0V4.15557ZM0 6.92236H34.2V8.30752H0V6.92236ZM0 9.69268H34.2V11.0778H0V9.69268ZM0 12.463H34.2V13.8481H0V12.463ZM0 15.2298H34.2V16.6149H0V15.2298Z" fill="white"/>
<path fill-rule="evenodd" clip-rule="evenodd" d="M0 0H13.6793V9.69258H0V0Z" fill="#192F5D"/>
<path fill-rule="evenodd" clip-rule="evenodd" d="M1.13916 0.414917L1.26572 0.79812H1.6665L1.34307 1.03367L1.46611 1.42039L1.13916 1.18132L0.815723 1.41687L0.93877 1.03367L0.611816 0.79812H1.01963L1.13916 0.414917ZM3.4208 0.414917L3.54385 0.79812H3.94814L3.62119 1.03367L3.74424 1.42039L3.4208 1.18132L3.09385 1.41687L3.21689 1.03367L2.89346 0.79812H3.29424L3.4208 0.414917ZM5.69893 0.414917L5.82549 0.79812H6.22275L5.89932 1.03367L6.02236 1.42039L5.69541 1.18132L5.37197 1.41687L5.49502 1.03367L5.16807 0.79812H5.57236L5.69893 0.414917ZM7.98057 0.414917L8.10361 0.79812H8.50791L8.18096 1.03367L8.30752 1.42039L7.98057 1.18132L7.65361 1.41687L7.78018 1.03367L7.45322 0.79812H7.854L7.98057 0.414917ZM10.2587 0.414917L10.3853 0.79812H10.786L10.4626 1.03367L10.5856 1.42039L10.2587 1.18132L9.93526 1.41687L10.0583 1.03367L9.73486 0.79812H10.1356L10.2587 0.414917ZM12.5403 0.414917L12.6634 0.79812H13.0677L12.7407 1.03367L12.8673 1.42039L12.5403 1.18132L12.2134 1.41687L12.3399 1.03367L12.013 0.79812H12.4173L12.5403 0.414917ZM2.28174 1.38523L2.40479 1.76843H2.80908L2.48213 2.00398L2.60166 2.38718L2.28525 2.15163L1.9583 2.38718L2.07432 2.00398L1.75791 1.76843H2.15869L2.28174 1.38523ZM4.55986 1.38523L4.68643 1.76843H5.08721L4.76025 2.00398L4.88682 2.38718L4.55986 2.15163L4.23291 2.38718L4.35947 2.00398L4.03252 1.76843H4.43682L4.55986 1.38523ZM6.84151 1.38523L6.96455 1.76843H7.36885L7.0419 2.00398L7.16494 2.38718L6.84151 2.15163L6.51455 2.38718L6.6376 2.00398L6.31416 1.76843H6.71494L6.84151 1.38523ZM9.11963 1.38523L9.24619 1.76843H9.64697L9.32002 2.00398L9.44658 2.38718L9.11963 2.15163L8.79619 2.38718L8.91924 2.00398L8.59229 1.76843H9.0001L9.11963 1.38523ZM11.4013 1.38523L11.5243 1.76843H11.9286L11.6017 2.00398L11.7247 2.38718L11.4013 2.15163L11.0743 2.38718L11.1974 2.00398L10.8739 1.76843H11.2747L11.4013 1.38523ZM1.13916 2.35203L1.26572 2.74226H1.6665L1.34307 2.97781L1.46611 3.36101L1.13916 3.12195L0.815723 3.36101L0.93877 2.97429L0.611816 2.73874H1.01963L1.13916 2.35203ZM3.4208 2.35203L3.54385 2.73874H3.94814L3.62119 2.97429L3.74424 3.35749L3.4208 3.11843L3.09385 3.35749L3.21689 2.97077L2.89346 2.73523H3.29424L3.4208 2.35203ZM5.69893 2.35203L5.82549 2.73874H6.22275L5.89932 2.97429L6.02236 3.35749L5.69541 3.11843L5.37197 3.35749L5.49502 2.97077L5.16807 2.73523H5.57236L5.69893 2.35203ZM7.98057 2.35203L8.10361 2.73874H8.50791L8.18096 2.97429L8.30752 3.35749L7.98057 3.11843L7.65361 3.35749L7.78018 2.97077L7.45322 2.73523H7.854L7.98057 2.35203ZM10.2587 2.35203L10.3853 2.73874H10.786L10.4626 2.97429L10.5856 3.35749L10.2587 3.11843L9.93526 3.35749L10.0583 2.97077L9.73486 2.73523H10.1356L10.2587 2.35203ZM12.5403 2.35203L12.6634 2.73874H13.0677L12.7407 2.97429L12.8673 3.35749L12.5403 3.11843L12.2134 3.35749L12.3399 2.97077L12.013 2.73523H12.4173L12.5403 2.35203ZM2.28174 3.32234L2.40479 3.70554H2.80908L2.48213 3.94109L2.60518 4.32781L2.28174 4.08874L1.95479 4.32429L2.07783 3.94109L1.75439 3.70554H2.15518L2.28174 3.32234ZM4.55986 3.32234L4.68643 3.70554H5.08721L4.76025 3.94109L4.88682 4.32781L4.55986 4.08874L4.23291 4.32429L4.35947 3.94109L4.03252 3.70554H4.43682L4.55986 3.32234ZM6.84151 3.32234L6.96455 3.70554H7.36885L7.0419 3.94109L7.16494 4.32781L6.84151 4.08874L6.51455 4.32429L6.6376 3.94109L6.31416 3.70554H6.71494L6.84151 3.32234ZM9.11963 3.32234L9.24619 3.70554H9.64697L9.32354 3.94109L9.44658 4.32781L9.11963 4.08874L8.79619 4.32429L8.91924 3.94109L8.59229 3.70554H9.0001L9.11963 3.32234ZM11.4013 3.32234L11.5243 3.70554H11.9286L11.6017 3.94109L11.7247 4.32781L11.4013 4.08874L11.0743 4.32429L11.1974 3.94109L10.8739 3.70554H11.2747L11.4013 3.32234ZM1.13916 4.29265L1.26572 4.67585H1.6665L1.34307 4.9114L1.46611 5.29812L1.13916 5.05905L0.815723 5.2946L0.93877 4.9114L0.611816 4.67585H1.01963L1.13916 4.29265ZM3.4208 4.29265L3.54385 4.67585H3.94814L3.62119 4.9114L3.74424 5.2946L3.4208 5.05905L3.09385 5.2946L3.21689 4.9114L2.89346 4.67585H3.29424L3.4208 4.29265ZM5.69893 4.29265L5.82549 4.67585H6.22275L5.89932 4.9114L6.02236 5.29812L5.69541 5.05905L5.37197 5.2946L5.49502 4.9114L5.16807 4.67585H5.57236L5.69893 4.29265ZM7.98057 4.29265L8.10361 4.67585H8.50791L8.18096 4.9114L8.30752 5.29812L7.98057 5.05905L7.65361 5.2946L7.78018 4.9114L7.45322 4.67585H7.854L7.98057 4.29265ZM10.2587 4.29265L10.3853 4.67585H10.786L10.4626 4.9114L10.5856 5.29812L10.2587 5.05905L9.93526 5.2946L10.0583 4.9114L9.73486 4.67585H10.1356L10.2587 4.29265ZM12.5403 4.29265L12.6634 4.67585H13.0677L12.7407 4.9114L12.8673 5.29812L12.5403 5.05905L12.2134 5.2946L12.3399 4.9114L12.013 4.67585H12.4173L12.5403 4.29265ZM2.28174 5.26296L2.40479 5.64616H2.80908L2.48213 5.88171L2.60518 6.26491L2.28174 6.02585L1.95479 6.26491L2.07783 5.8782L1.75439 5.64265H2.15518L2.28174 5.26296ZM4.55986 5.26296L4.68643 5.64616H5.08721L4.76025 5.88171L4.88682 6.26491L4.55986 6.02585L4.23291 6.26491L4.35947 5.8782L4.03252 5.64265H4.43682L4.55986 5.26296ZM6.84151 5.26296L6.96455 5.64616H7.36885L7.0419 5.88171L7.16494 6.26491L6.84151 6.02585L6.51455 6.26491L6.6376 5.8782L6.31416 5.64265H6.71494L6.84151 5.26296ZM9.11963 5.26296L9.24619 5.64616H9.64697L9.32354 5.88171L9.44658 6.26491L9.11963 6.02585L8.79619 6.26491L8.91924 5.8782L8.59229 5.64265H9.0001L9.11963 5.26296ZM11.4013 5.26296L11.5243 5.64616H11.9286L11.6017 5.88171L11.7247 6.26491L11.4013 6.02585L11.0743 6.26491L11.1974 5.8782L10.8739 5.64265H11.2747L11.4013 5.26296ZM1.13916 6.22976L1.26572 6.61648H1.6665L1.34307 6.85202L1.46611 7.23171L1.13916 6.99616L0.815723 7.23171L0.93877 6.84851L0.611816 6.61296H1.01963L1.13916 6.22976ZM3.4208 6.22976L3.54385 6.61648H3.94814L3.62119 6.85202L3.74775 7.23171L3.4208 6.99616L3.09385 7.23171L3.22041 6.84851L2.89346 6.61296H3.29424L3.4208 6.22976ZM5.69893 6.22976L5.82549 6.61648H6.22275L5.89932 6.85202L6.02236 7.23171L5.69541 6.99616L5.37197 7.23171L5.49502 6.84851L5.16807 6.61296H5.57236L5.69893 6.22976ZM7.98057 6.22976L8.10361 6.61648H8.50791L8.18096 6.85202L8.30752 7.23171L7.98057 6.99616L7.65361 7.23171L7.78018 6.84851L7.45322 6.61296H7.854L7.98057 6.22976ZM10.2587 6.22976L10.3853 6.61648H10.786L10.4626 6.85202L10.5856 7.23171L10.2587 6.99616L9.93526 7.23171L10.0583 6.84851L9.73486 6.61296H10.1356L10.2587 6.22976ZM12.5403 6.22976L12.6634 6.61648H13.0677L12.7407 6.85202L12.8673 7.23171L12.5403 6.99616L12.2134 7.23171L12.3399 6.84851L12.013 6.61296H12.4173L12.5403 6.22976ZM2.28174 7.20007L2.40479 7.58327H2.80908L2.48213 7.81882L2.60518 8.20554L2.28174 7.96648L1.95479 8.20202L2.07783 7.81882L1.75439 7.58327H2.15518L2.28174 7.20007ZM4.55986 7.20007L4.68643 7.58327H5.08721L4.76025 7.81882L4.88682 8.20554L4.55986 7.96648L4.23291 8.20202L4.35947 7.81882L4.03252 7.58327H4.43682L4.55986 7.20007ZM6.84151 7.20007L6.96455 7.58327H7.36885L7.0419 7.81882L7.16494 8.20554L6.84151 7.96648L6.51455 8.20202L6.6376 7.81882L6.31416 7.58327H6.71494L6.84151 7.20007ZM9.11963 7.20007L9.24619 7.58327H9.64697L9.32354 7.81882L9.44658 8.20554L9.11963 7.96648L8.79619 8.20202L8.91924 7.81882L8.59229 7.58327H9.0001L9.11963 7.20007ZM11.4013 7.20007L11.5243 7.58327H11.9286L11.6017 7.81882L11.7247 8.20554L11.4013 7.96648L11.0743 8.20202L11.1974 7.81882L10.8739 7.58327H11.2747L11.4013 7.20007ZM1.13916 8.17038L1.26572 8.55358H1.6665L1.34307 8.78913L1.46611 9.17233L1.13916 8.93679L0.815723 9.17233L0.93877 8.78561L0.611816 8.55007H1.01963L1.13916 8.17038ZM3.4208 8.17038L3.54385 8.55358H3.94814L3.62119 8.78913L3.74775 9.17233L3.4208 8.93679L3.09385 9.17233L3.22041 8.78561L2.89346 8.55007H3.29424L3.4208 8.17038ZM5.69893 8.17038L5.82549 8.55358H6.22275L5.90635 8.78913L6.0294 9.17233L5.70244 8.93679L5.379 9.17233L5.50205 8.78561L5.1751 8.55007H5.5794L5.69893 8.17038ZM7.98057 8.17038L8.10361 8.55358H8.50791L8.18096 8.78913L8.30752 9.17233L7.98057 8.93679L7.65361 9.17233L7.78018 8.78561L7.45322 8.55007H7.854L7.98057 8.17038ZM10.2587 8.17038L10.3853 8.55358H10.786L10.4626 8.78913L10.5856 9.17233L10.2587 8.93679L9.93526 9.17233L10.0583 8.78561L9.73486 8.55007H10.1356L10.2587 8.17038ZM12.5403 8.17038L12.6634 8.55358H13.0677L12.7407 8.78913L12.8673 9.17233L12.5403 8.93679L12.2134 9.17233L12.3399 8.78561L12.013 8.55007H12.4173L12.5403 8.17038Z" fill="white"/>
</g>
<defs>
<clipPath id="clip0_1_5888">
<rect width="24" height="18" fill="white"/>
</clipPath>
</defs>
</svg>
